<svg width="200" height="200" viewBox="0 0 200 200" fill="none" xmlns="http://www.w3.org/2000/svg">
<path fill-rule="evenodd" clip-rule="evenodd" d="M41.2253 68.5239C43.3307 63.5667 45.959 58.6862 49.0782 54.0129L49.1309 53.9327C49.4704 53.4166 49.8139 52.9054 50.1602 52.4003C70.6614 20.4918 114.677 1.37116 151.891 18.3097C181.303 30.9417 195.398 56.7365 194.991 79.7021C194.787 91.1539 190.929 102.326 182.965 110.402C181.601 111.784 180.141 113.051 178.59 114.197C185.777 119.923 190.478 126.887 191.7 135.024C193.525 147.2 186.979 158.083 177.763 166.112C159.323 182.176 124.769 192.243 85.4089 188.045C78.8697 187.449 55.2466 182.789 49.8681 174.127C47.0228 172.75 44.4252 171.117 42.181 169.2C38.5025 166.056 35.4642 161.859 34.3445 156.567C32.7148 148.866 36.9288 135.785 45.6783 132.043C48.8251 147.548 60.045 148.489 68.3763 149.362C71.7883 146.488 73.4323 144.86 76.8664 140.548C70.2013 141.088 61.7405 139.264 55.2466 135.785C43.3347 129.402 36.1588 117.68 35.3777 100.936C34.6039 89.9658 36.9526 78.5835 41.2253 68.5239ZM57.9617 57.5866C57.6224 58.08 57.2861 58.5797 56.9535 59.0856C56.9308 59.1198 56.9084 59.1542 56.8859 59.1885C54.0791 63.3894 51.7234 67.7651 49.844 72.1902C49.8516 72.2589 49.8596 72.3272 49.8681 72.3954C45.9963 81.6982 44.1846 91.1925 44.684 99.7262C44.6988 99.9786 44.7154 100.23 44.7344 100.481L44.7359 100.501L44.7316 100.481L44.7326 100.502C44.7424 100.71 44.7532 100.917 44.7652 101.123C46.137 124.721 62.1912 132.278 81.9181 132.043C85.1132 132.004 88.4047 131.762 91.7457 131.35C90.8852 135.066 89.9201 138.284 88.6971 141.088C86.9442 145.106 84.6617 148.272 81.3984 150.835C93.1577 151.728 105.889 149.987 117.285 146.488C133.028 145.331 157.459 136.273 152.499 118.814C152.418 118.528 152.33 118.239 152.233 117.949C151.701 115.967 151.062 114.039 150.41 112.215L150.361 112.078L150.418 112.134C153.926 112.48 157.19 112.387 160.202 111.91C160.448 111.87 160.693 111.829 160.934 111.785C161.47 111.688 161.998 111.578 162.517 111.457C163.054 111.331 163.583 111.192 164.104 111.04C165.91 110.515 167.607 109.838 169.195 109.027C169.213 109.018 169.23 109.009 169.246 109.001C169.261 108.993 169.278 108.984 169.295 108.976L169.296 108.975C169.549 108.844 169.8 108.71 170.047 108.572C195.261 94.5593 191.219 45.3308 148.105 26.8824C115.958 12.187 76.5033 28.6038 57.9617 57.5866ZM162.201 115.092C181.379 137.376 162.459 157.612 132.576 168.734C143.687 161.53 152.808 150.251 158.302 133.901C125.058 165.459 48.7773 168.726 45.2211 147.548C45.1542 146.805 45.1201 146.036 45.1196 145.24L45.1206 145.225C37.4696 160.314 54.4136 169.654 77.6153 171.007C77.715 171.012 77.8148 171.018 77.9147 171.023C78.3964 171.05 78.881 171.073 79.3679 171.092C81.8594 171.194 84.4159 171.204 87.0157 171.122C87.0578 171.12 87.0998 171.118 87.1419 171.117C90.8376 170.995 94.6201 170.686 98.4266 170.18C112.111 168.365 126.107 164.022 137.505 156.795C131.103 162.379 124.846 166.448 118.472 169.434C108.442 174.131 98.1232 176.138 86.5005 177.116L86.4737 177.118C83.8 177.342 81.0573 177.512 78.2332 177.649C80.9232 178.115 83.6261 178.474 86.3291 178.719C90.5975 179.175 94.7898 179.454 98.8917 179.569C106.625 179.786 114.036 179.421 121.03 178.567C170.579 172.524 199.13 142.039 172.381 121.224C171.471 120.515 170.496 119.818 169.456 119.133C167.321 117.727 164.91 116.373 162.211 115.085L162.184 115.072L162.201 115.092Z" fill="#C5F955"/>
<path d="M56.3687 58.8275C34.2302 92.4674 40.123 136.966 87.8283 129.081L135.123 113.468C179.418 98.6853 181.534 53.3861 153.588 33.4184C132.412 18.2869 83.3383 17.85 56.3687 58.8275Z" fill="#FF3E8F"/>
<path fill-rule="evenodd" clip-rule="evenodd" d="M81.6332 85.2119C102.506 79.5167 124.602 55.3126 128 24.2847C120.772 23.6108 112.733 24.1059 103.94 26.0614C77.4743 31.9484 58.6576 51.3817 50 71.8671C51.7569 87.7396 76.1503 86.7105 81.6332 85.2119Z" fill="#C5F955"/>
<path fill-rule="evenodd" clip-rule="evenodd" d="M81.7908 85.6206C102.854 79.8698 122.571 56.331 126 25L119.953 26.4595C110.191 61.8606 82.693 86.7054 58 79.7865C61.6477 86.609 78.9409 86.4 81.7908 85.6206Z" fill="#67B800"/>
<path fill-rule="evenodd" clip-rule="evenodd" d="M120 32.0179C91.9376 26.4865 58.851 43.9223 51 74C62.4064 52.4611 93.8835 33.0458 120 32.0179Z" fill="#E9FFCE"/>
<path d="M176 59.9713L133.287 118.6L89.767 127.777C89.3016 128.115 88.8837 127.969 88.8738 127.966L89.767 127.777C90.474 127.264 91.2906 125.634 90.9552 120.693C90.0519 118.133 89.4444 112.099 83.3054 107.994C80.3576 106.023 77.5671 103.402 78.056 99.8929C78.5386 96.43 81.6665 94.3773 85.0699 93.5603C114.483 86.4997 128.077 56.421 131.097 28L156.856 39.14L176 59.9713Z" fill="#C91C65"/>
<path d="M148.995 97C130.473 89.3351 139.562 55.8903 160.977 48C160.984 48.01 160.993 48.0203 161 48.0303C147.941 58.2321 145.662 80.3322 155.99 90.8868C154.535 92.4027 152.932 93.9001 151.176 95.3727C150.48 95.9115 149.752 96.4544 148.995 97Z" fill="#4C8700"/>
<path fill-rule="evenodd" clip-rule="evenodd" d="M47 109.416C61.9049 107.218 86.1936 113.778 87 127.923C70.3128 128.932 52.3209 119.844 47 109.416Z" fill="#67B800"/>
<path d="M49.4165 113.048C51.6645 114.67 54.9833 116.156 59.7332 117.216C66.7128 118.773 74.4995 117.772 80 116.292C71.2932 110.358 57.0504 107.952 47 109.419C47.6355 110.652 48.4487 111.866 49.4165 113.048Z" fill="#C5F955"/>
<path d="M97.1138 118.309C99.5735 91.1923 137.616 87.1422 143.794 104.259C144.298 105.794 144.931 107.467 145.6 109.235C147.424 114.057 149.516 119.587 150 124.966C142.624 138.567 116.74 149.734 92 151C99.5112 135.102 97.1138 118.309 97.1138 118.309Z" fill="white"/>
<path d="M142.363 135.08L117.33 146C134.168 137.124 135.035 99.6781 117 103.417L131.97 97L146 109.259L142.363 135.08Z" fill="#FF97C2"/>
<path fill-rule="evenodd" clip-rule="evenodd" d="M148.178 26.5384C143.052 24.2082 137.503 22.5396 131.685 21.6977L131.686 21.6947L131.629 21.6895C102.275 17.4688 72.3215 32.9777 56.5371 58.5749C72.1856 37.6111 100.689 25.4717 124.28 28.7458C122.284 40.6047 114.603 58.2638 100.689 70.762C86.8781 83.1668 65.9464 87.846 53.1174 80.2059C62.5746 91.4237 91.3146 89.987 106.93 76.5243C121.572 63.9018 130.645 44.173 132.314 30.4436C132.997 30.61 133.672 30.786 134.339 30.9713C141.458 33.2252 143.436 39.3388 143.916 43.6154C144.234 46.4405 142.479 48.9061 140.395 50.8495C135.98 54.965 131.579 61.605 129.025 68.746C126.143 76.8063 122.298 85.1374 115.303 90.1095C112.174 92.3334 109.691 94.2475 107.78 95.915C101.111 100.303 95.9783 107.526 93.9869 117.846C93.7 119.333 93.5385 120.203 93.3066 121.495C70.093 126.1 48.6954 122.512 44 100.302C45.3061 128.336 67.0374 134.224 91.3803 131.239C89.2699 140.302 86.5358 146.407 80.9522 150.768C85.1809 151.087 89.5342 151.07 93.9066 150.758C97.7075 146.06 99.0136 137.757 100.13 130.661C100.386 129.03 100.633 127.462 100.897 126.017C101.014 125.361 101.141 124.72 101.279 124.093C101.383 123.617 101.491 123.16 101.604 122.725C108.885 94.1732 139.433 99.2124 140.915 118.975C140.949 119.433 140.987 119.878 141.023 120.31C141.692 128.244 142.031 132.269 117.031 146.416L117.028 146.417C133.15 145.268 158.426 135.908 152.338 117.809C151.788 115.773 151.126 113.793 150.452 111.924L150.509 111.98C195.68 116.414 200.738 48.905 148.178 26.5384ZM160.741 48.0257C140.092 55.9161 131.328 89.3612 149.187 97.0262L155.932 90.9129C145.974 80.3582 148.171 58.2579 160.762 48.056L160.741 48.0257Z" fill="#181818"/>
<path d="M86.2622 178.096C161.876 186.087 213.698 139.12 162.458 115C181.751 137.098 162.742 157.168 132.718 168.196C143.878 161.056 153.04 149.874 158.559 133.665C123.989 166.054 43.0891 168.383 44.8701 144.885C30.8426 172.182 99.0818 180.506 137.667 156.361C118.785 172.615 101.148 175.941 78.1299 177.033C80.8321 177.497 83.5472 177.853 86.2622 178.096Z" fill="#181818"/>
<path fill-rule="evenodd" clip-rule="evenodd" d="M71.4787 73.997C68.5505 73.9217 66.5795 72.4255 67.0767 70.6552C68.5575 65.3824 69.6719 57.2692 69.084 50.7795C68.9261 49.0357 71.2025 47.3668 74.1685 47.0517C77.1346 46.7366 79.667 47.8946 79.825 49.6382C80.4618 56.6675 79.2724 65.2624 77.6811 70.9283C77.1841 72.6986 74.407 74.0726 71.4787 73.997Z" fill="#181818"/>
<path d="M67 72.6617C67 72.6617 68.8468 73.7313 71.4937 72.3686C75.7699 70.1674 76.7674 56.9057 76.7674 49.1602C76.7674 47.0677 74.0863 47.0315 74.0863 47.0315C77.1108 46.7927 79.6535 47.9366 79.8158 49.6382C80.4861 56.6674 79.2341 65.2624 77.559 70.9283C77.0358 72.6986 74.1125 74.0726 71.03 73.997C69.2468 73.9535 67.8008 73.4343 67 72.6617Z" fill="#FF3E8F"/>
<path fill-rule="evenodd" clip-rule="evenodd" d="M94.4789 62.997C91.5504 62.9215 89.5796 61.4253 90.0767 59.6551C91.5575 54.3823 92.6719 46.2693 92.0841 39.7794C91.9261 38.0359 94.2026 36.3668 97.1687 36.0517C100.135 35.7366 102.667 36.8946 102.825 38.6382C103.462 45.6674 102.272 54.2623 100.681 59.9282C100.184 61.6984 97.4072 63.0724 94.4789 62.997Z" fill="#181818"/>
<path d="M90 61.6616C90 61.6616 91.8468 62.7311 94.4938 61.3685C98.7698 59.1673 99.7675 45.9056 99.7675 38.1602C99.7675 36.0678 97.0864 36.0315 97.0864 36.0315C100.111 35.7927 102.654 36.9366 102.816 38.6382C103.486 45.6674 102.234 54.2623 100.559 59.9282C100.036 61.6984 97.1126 63.0724 94.0301 62.997C92.2468 62.9534 90.8008 62.4342 90 61.6616Z" fill="#FF3E8F"/>
<path d="M33.5 12L37.9564 24.0434L50 28.4999L37.9564 32.9565L33.5 45L29.0436 32.9565L17 28.4999L29.0436 24.0434L33.5 12Z" fill="#C5F955"/>
<path d="M14.5 43L17.0658 49.9342L24 52.5L17.0658 55.0659L14.5 62L11.9342 55.0659L5 52.5L11.9342 49.9342L14.5 43Z" fill="#C5F955"/>
</svg>
